<?xml version="1.0" encoding="UTF-8" standalone="no"?>
<svg
   xmlns:dc="http://purl.org/dc/elements/1.1/"
   xmlns:cc="http://creativecommons.org/ns#"
   xmlns:rdf="http://www.w3.org/1999/02/22-rdf-syntax-ns#"
   xmlns:svg="http://www.w3.org/2000/svg"
   xmlns="http://www.w3.org/2000/svg"
   xmlns:sodipodi="http://sodipodi.sourceforge.net/DTD/sodipodi-0.dtd"
   xmlns:inkscape="http://www.inkscape.org/namespaces/inkscape"
   width="210mm"
   height="297mm"
   viewBox="0 0 210 297"
   version="1.1"
   id="svg56"
   inkscape:version="1.0.1 (3bc2e813f5, 2020-09-07)"
   sodipodi:docname="logo.svg">
  <defs
     id="defs50" />
  <sodipodi:namedview
     id="base"
     pagecolor="#ffffff"
     bordercolor="#666666"
     borderopacity="1.0"
     inkscape:pageopacity="0.0"
     inkscape:pageshadow="2"
     inkscape:zoom="0.49497475"
     inkscape:cx="448.71943"
     inkscape:cy="844.98867"
     inkscape:document-units="mm"
     inkscape:current-layer="layer1"
     inkscape:document-rotation="0"
     showgrid="false"
     inkscape:window-width="1292"
     inkscape:window-height="704"
     inkscape:window-x="74"
     inkscape:window-y="27"
     inkscape:window-maximized="1" />
  <metadata
     id="metadata53">
    <rdf:RDF>
      <cc:Work
         rdf:about="">
        <dc:format>image/svg+xml</dc:format>
        <dc:type
           rdf:resource="http://purl.org/dc/dcmitype/StillImage" />
        <dc:title></dc:title>
      </cc:Work>
    </rdf:RDF>
  </metadata>
  <g
     inkscape:label="Layer 1"
     inkscape:groupmode="layer"
     id="layer1">
    <path
       style="fill:#000000;fill-opacity:1;fill-rule:nonzero;stroke:none;stroke-width:0.264583"
       id="path66"
       d="m 22.553369,219.16827 c 2.406218,-0.50635 4.890452,-0.4561 7.336213,-0.41186 3.490108,0.114 6.960949,0.51539 10.443511,0.74796 2.898032,0.17868 5.798527,0.0502 8.687531,-0.19567 1.504047,-0.14085 3.008532,-0.27646 4.517726,-0.3464 0.655227,-0.0283 1.31124,-0.0183 1.966221,-0.0522 0.238713,-0.008 0.476071,-0.0302 0.713333,-0.056 1.788395,-0.36999 3.745087,-1.40402 4.69991,-3.01871 0.339879,-0.56974 0.496141,-1.20874 0.613601,-1.85454 0.216804,-1.66011 0.699063,-3.26666 1.168296,-4.86859 0.833118,-2.7388 1.99194,-5.36095 3.142031,-7.97731 0.986792,-2.28022 2.052513,-4.52601 3.342126,-6.65128 1.177446,-1.93022 2.981719,-3.22529 4.86917,-4.39084 -6.255973,3.5294 -1.742403,1.02082 -0.277133,0.37367 0.798343,-0.3526 0.897951,-0.37424 1.710539,-0.6716 1.817831,-0.64559 3.73625,-0.78583 5.648783,-0.77447 1.338244,0.0292 2.662044,0.23095 3.891219,0.76888 1.0727,0.57293 1.698522,1.5887 2.261238,2.62394 0.819758,1.61476 1.338646,3.35484 1.801206,5.09863 0.463272,2.11629 0.908529,4.23628 1.381289,6.35064 0.468863,2.14045 0.882116,4.29312 1.279377,6.44793 0.344019,1.9169 0.586557,3.85074 0.776901,5.78843 0.09872,0.92988 0.138698,1.86539 0.238676,2.79505 0.03165,0.3485 0.225425,0.57081 0.530939,0.71747 0.55013,0.14796 1.125577,0.01 1.674738,-0.0789 1.167625,-0.1664 2.346265,-0.24084 3.521732,-0.32919 1.684938,-0.0994 3.370798,-0.18794 5.057398,-0.25409 1.97497,-0.0953 3.95054,-0.16643 5.92745,-0.20345 1.65483,-0.0475 3.30964,0.003 4.96441,0.0137 1.41218,-0.002 2.8228,-0.0787 4.23388,-0.1266 1.19742,-0.0363 2.39536,-0.0443 3.59325,-0.0468 0.8878,0.0235 1.77132,-0.0379 2.65224,-0.14092 2.45317,-0.29907 4.71171,-1.726 6.50768,-3.39481 1.30901,-1.35689 1.88191,-3.14942 2.37081,-4.92357 0.62432,-2.62535 1.02472,-5.29657 1.53005,-7.94613 0.39923,-2.22326 1.10391,-4.36617 2.00915,-6.43028 0.86147,-1.89676 2.08757,-3.56116 3.52702,-5.05297 0.62942,-0.57557 0.84203,-0.80476 1.53556,-1.30116 0.27792,-0.19893 1.15644,-0.72805 0.85833,-0.56088 -6.56975,3.68412 -3.12022,1.78341 -1.5316,1.12885 1.70343,-0.65306 3.49074,-0.88834 5.30289,-0.80399 1.52518,0.11848 2.92311,0.6988 4.24336,1.43562 1.31547,0.77407 2.34129,1.86953 3.21035,3.10623 0.99194,1.57276 1.5052,3.37192 2.02291,5.14053 0.59625,2.1148 1.15863,4.23895 1.78241,6.34589 0.39983,1.53416 1.02391,2.91169 2.0939,4.08225 1.21069,1.11945 2.72261,1.82816 4.17588,2.57417 1.58903,0.85686 3.22689,1.59783 4.93255,2.18776 1.97885,0.62436 4.03375,0.92724 6.09133,1.14082 1.90058,0.19679 3.81036,0.18991 5.71706,0.12195 1.65683,-0.0825 3.30665,-0.2555 4.94639,-0.50358 2.77688,-0.44268 5.45904,-1.82343 7.48088,-3.79278 1.01777,-1.08261 1.39939,-2.54086 1.74922,-3.94494 0.43066,-2.03273 0.66433,-4.10369 0.79758,-6.17553 0.12296,-2.10485 0.0513,-4.21213 -0.15769,-6.30826 -0.24758,-1.93598 -0.63528,-3.85034 -0.97344,-5.77175 -0.30152,-1.79791 -0.43914,-3.61739 -0.60646,-5.43115 -0.12258,-1.3069 -0.17642,-2.61845 -0.20465,-3.93032 -0.0159,-1.05873 0.0112,-2.11775 -0.0549,-3.17501 -0.0434,-0.73277 -0.1616,-1.45888 -0.31389,-2.17619 -0.10189,-0.44492 -0.2099,-0.88814 -0.32812,-1.32901 -0.13559,-0.44535 -0.32301,-0.87243 -0.51906,-1.29387 -0.1852,-0.41367 -0.44175,-0.77769 -0.7405,-1.11558 -0.70712,-0.73159 -1.63831,-1.12261 -2.56076,-1.50508 -1.42462,-0.57284 -2.89811,-1.00067 -4.41077,-1.25817 -1.29255,-0.1937 -2.59925,-0.13332 -3.89898,-0.0771 -1.45599,0.0823 -2.91152,0.16301 -4.36934,0.20472 -1.47858,0.0329 -2.95756,0.0381 -4.4363,0.0621 -1.56794,0.0481 -3.13617,0.086 -4.70415,0.13283 -1.438,0.037 -2.87343,0.12854 -4.30955,0.20567 -0.92011,0.0652 -1.83473,0.0826 -2.74023,-0.10557 -1.24148,-0.36086 -2.05584,-1.40433 -2.83464,-2.36993 -1.25317,-1.62432 -2.09168,-3.505 -2.9504,-5.35379 -0.93366,-2.00887 -1.72778,-4.07671 -2.4325,-6.17559 -0.63353,-1.99618 -1.2086,-4.01027 -1.75756,-6.03114 -0.55082,-2.2034 -1.13381,-4.39776 -1.93966,-6.5228 -0.81695,-1.9713 -1.95574,-3.7861 -3.06888,-5.59949 -1.07647,-1.73092 -2.12876,-3.47815 -3.26087,-5.17354 -0.86599,-1.30388 -1.87017,-2.49286 -3.03633,-3.53471 -1.22468,-1.05419 -2.6703,-1.77434 -4.14063,-2.41514 -1.28325,-0.5425 -2.60705,-0.97411 -3.95061,-1.33805 -1.38527,-0.36768 -2.78901,-0.65824 -4.19867,-0.91428 -1.54663,-0.27528 -3.11441,-0.4065 -4.67979,-0.52057 -1.55153,-0.10671 -3.10405,-0.19701 -4.65705,-0.27926 -1.77246,-0.0855 -3.54392,-0.18845 -5.31464,-0.30415 -1.78913,-0.10705 -3.58021,-0.17566 -5.37184,-0.22234 -1.95262,-0.0478 -3.90567,-0.0725 -5.85882,-0.0809 -1.764917,-0.009 -3.529841,-0.002 -5.294763,-0.003 -1.635215,0.002 -3.269871,0.0117 -4.903015,-0.078 -1.790499,-0.14858 -3.576272,-0.34846 -5.365062,-0.51629 -1.793057,-0.17063 -3.573587,-0.44523 -5.36649,-0.61594 -1.752323,-0.14664 -3.512185,-0.16196 -5.269543,-0.17356 -1.700228,-0.0235 -3.398718,-0.0253 -5.095586,0.0906 -1.59263,0.1182 -3.155357,0.44519 -4.677783,0.91769 -3.004751,1.11184 -5.806292,2.81238 -8.235992,4.89509 -1.179285,1.05817 -2.242156,2.23289 -3.200885,3.49222 -1.044493,1.47862 -1.822651,3.11357 -2.458561,4.80216 -0.564668,1.64746 -1.004742,3.3342 -1.379929,5.03379 -0.384799,1.91755 -0.577027,3.86447 -0.73469,5.81143 -0.141054,1.77814 -0.285588,3.5558 -0.408969,5.33526 -0.11403,1.7028 -0.238937,3.40451 -0.451143,5.09816 -0.189847,1.59458 -0.645729,3.13029 -1.157809,4.64577 -0.577937,1.69527 -1.427194,3.27386 -2.326391,4.81599 -0.89966,1.60312 -2.017528,3.01851 -3.423177,4.19867 -1.480015,1.0224 -4.846338,3.13081 2.111298,-1.13 0.270595,-0.16571 -0.565578,0.28802 -0.852164,0.42422 -0.647761,0.30785 -1.035365,0.46344 -1.692487,0.74126 -1.62737,0.69374 -3.340264,1.13151 -5.066437,1.49406 -1.931152,0.36012 -3.864761,0.69898 -5.760231,1.21984 -3.180699,1.0739 -6.100509,2.87281 -8.753528,4.91892 -1.293342,1.00158 -2.504497,2.09936 -3.581794,3.33012 -1.208257,1.42312 -1.808184,3.1535 -2.215844,4.94438 -0.424963,2.38009 -0.39986,4.80187 -0.236188,7.20414 0.224579,2.7808 0.786767,5.51797 1.435249,8.2265 0.629916,2.6225 1.407026,5.2055 2.214215,7.77782 0.671902,2.07611 1.37657,4.14157 2.101245,6.19981 0.514255,1.4899 0.930968,2.7705 2.242565,3.71936 1.236421,0.60856 2.640331,0.53741 3.980578,0.45368 0.414226,-0.0259 0.834091,-0.0225 1.240536,-0.10652 0.6223,-0.1286 1.22111,-0.35224 1.831665,-0.52836 0.959496,-0.4196 1.918989,-0.8392 2.878484,-1.2588 0,0 0.128715,-0.0957 0.128715,-0.0957 v 0 c 0.0342,-0.31981 0.0684,-0.63963 0.102605,-0.95944 -0.265763,-0.076 -0.521234,-0.21383 -0.79729,-0.22809 -0.409077,-0.0211 -0.814239,0.0919 -1.222624,0.12372 -1.227579,0.0956 -2.518327,0.18343 -3.694583,-0.24546 -1.223645,-0.75545 -1.64937,-2.09941 -2.14088,-3.39474 -0.75287,-2.03699 -1.472072,-4.08668 -2.153226,-6.14878 -0.824753,-2.55148 -1.601626,-5.11866 -2.22455,-7.72807 -0.629458,-2.68748 -1.186503,-5.40022 -1.372296,-8.16029 -0.125396,-2.3721 -0.134937,-4.76508 0.373621,-7.0992 0.45706,-1.73739 1.119642,-3.38592 2.359431,-4.72559 1.110425,-1.18683 2.328758,-2.26341 3.627677,-3.24127 1.54278,-1.13403 4.537374,-2.76103 -2.512342,1.25453 -0.231087,0.13163 0.456585,-0.27361 0.693351,-0.39473 0.60432,-0.30914 0.909635,-0.40273 1.549352,-0.64339 1.876284,-0.57207 3.800138,-0.93422 5.733989,-1.25448 1.745795,-0.33774 3.482543,-0.74212 5.133842,-1.41694 3.312562,-1.35807 6.541667,-3.02441 9.366261,-5.23747 1.355129,-1.25727 2.443416,-2.72552 3.336401,-4.346 0.891336,-1.57463 1.726962,-3.18553 2.288455,-4.91209 0.510672,-1.542 0.931093,-3.11155 1.093941,-4.73339 0.186947,-1.69796 0.297376,-3.40228 0.415962,-5.10611 0.136261,-1.77215 0.256252,-3.54549 0.384604,-5.31823 0.159205,-1.93521 0.373417,-3.86964 0.803904,-5.76615 0.378468,-1.67333 0.795603,-3.34312 1.393706,-4.95355 0.667867,-1.65177 1.453174,-3.25879 2.547372,-4.67619 0.988544,-1.22156 2.053846,-2.38193 3.256899,-3.39753 0.489056,-0.39627 0.691713,-0.57593 1.210513,-0.93432 0.20587,-0.14221 0.848739,-0.52964 0.630063,-0.40802 -7.237023,4.02475 -4.181353,2.25595 -2.509411,1.56801 1.492379,-0.51802 3.030656,-0.87618 4.607126,-1.01994 1.691071,-0.14861 3.385161,-0.15359 5.08196,-0.13494 1.744864,0.0122 3.491423,0.0197 5.232612,0.14741 1.802199,0.15174 3.591049,0.41334 5.390226,0.59508 1.7818,0.17501 3.560832,0.37477 5.342208,0.55316 1.644761,0.11833 3.291147,0.10632 4.939413,0.0924 1.765364,-0.003 3.530725,0.001 5.296091,-6e-5 1.957731,0.004 3.915788,0.002 5.872998,0.0543 1.77714,0.0564 3.55235,0.14996 5.32839,0.2332 1.77501,0.10086 3.54947,0.21182 5.32514,0.30069 1.54441,0.087 3.08702,0.20325 4.63148,0.28911 1.5556,0.0982 3.11361,0.21654 4.6529,0.469 1.39394,0.25098 2.78014,0.5407 4.15155,0.8963 1.33379,0.34515 2.65292,0.74463 3.93209,1.26025 1.43374,0.59658 2.84474,1.27217 4.04371,2.27753 1.13973,1.00792 2.12982,2.15538 2.99508,3.40841 1.14684,1.67727 2.21621,3.40387 3.28182,5.13352 1.08605,1.79304 2.20326,3.58161 3.02593,5.5154 0.80436,2.10783 1.37586,4.28676 1.91389,6.47606 0.52775,2.03808 1.12651,4.05597 1.77586,6.05873 0.70979,2.11707 1.52345,4.19624 2.45735,6.22539 0.86574,1.88909 1.7257,3.80384 2.96392,5.48518 0.81339,1.06126 1.66994,2.18816 2.94749,2.70459 0.93781,0.27749 1.89257,0.31008 2.86469,0.21325 1.44442,-0.0866 2.8873,-0.19847 4.33413,-0.23929 1.56223,-0.0554 3.12561,-0.0692 4.68769,-0.13123 1.48106,-0.0246 2.96231,-0.0327 4.44331,-0.0602 1.45333,-0.0377 2.90561,-0.0949 4.35676,-0.18426 1.2804,-0.0592 2.56693,-0.14541 3.84559,-0.01 1.49365,0.19823 2.94938,0.58431 4.35025,1.14386 0.83615,0.35574 1.68494,0.72206 2.34666,1.36493 0.26748,0.2962 0.4885,0.62344 0.65647,0.98677 0.18622,0.39247 0.36244,0.79137 0.46937,1.21399 0.11547,0.43008 0.22731,0.86122 0.33076,1.29435 0.14324,0.69005 0.26543,1.38473 0.30722,2.08956 0.0513,1.04961 0.0409,2.10033 0.0656,3.15074 0.0345,1.31665 0.12177,2.6302 0.26682,3.93965 0.17753,1.82173 0.34256,3.64679 0.65093,5.45233 0.32323,1.91128 0.72948,3.80922 0.96196,5.73492 0.19741,2.06955 0.2738,4.14874 0.13145,6.22559 -0.15197,2.04793 -0.36578,4.10005 -0.86355,6.0971 -0.39108,1.35664 -0.83006,2.7366 -1.93972,3.68621 -1.66427,1.22638 -0.60335,0.41947 3.64095,-2.00179 0.15153,-0.0865 -0.29957,0.17998 -0.45719,0.25475 -0.53147,0.25211 -1.10752,0.35645 -1.68014,0.46877 -1.64078,0.28646 -3.29421,0.48693 -4.95743,0.58695 -1.89485,0.10011 -3.79205,0.10527 -5.68448,-0.0569 -2.03269,-0.18189 -4.06692,-0.43417 -6.02286,-1.04437 -1.68889,-0.56538 -3.30661,-1.28879 -4.87122,-2.14149 -1.40737,-0.70674 -2.86243,-1.39044 -4.05558,-2.43629 -1.03221,-1.08782 -1.61537,-2.41399 -2.0362,-3.84714 -0.65633,-2.09412 -1.22374,-4.21291 -1.795,-6.33149 -0.52641,-1.82547 -1.04754,-3.68235 -2.0693,-5.30503 -0.90857,-1.31393 -1.98882,-2.45912 -3.38535,-3.2675 -1.37494,-0.77404 -2.82831,-1.41591 -4.41342,-1.59251 -1.85663,-0.14307 -3.69244,0.0389 -5.46239,0.65201 -3.4235,1.28176 -6.7163,3.15121 -9.33953,5.71033 -1.41305,1.55341 -2.61767,3.26996 -3.45186,5.20809 -0.87968,2.09773 -1.55338,4.27199 -1.93737,6.51833 -0.46746,2.6419 -0.85034,5.30562 -1.55216,7.89911 -0.54664,1.73113 -1.19159,3.48912 -2.61402,4.70304 -1.65004,1.17112 -0.75824,0.51653 3.54906,-1.95306 0.1974,-0.11317 -1.23351,0.61405 -1.2968,0.42426 -0.87974,0.12563 -1.76203,0.23759 -2.65317,0.22026 -1.20923,0.007 -2.41862,0.014 -3.62731,0.0534 -1.4134,0.0457 -2.82519,0.13649 -4.23947,0.15219 -1.67397,0.005 -3.34807,-0.0379 -5.02183,0.0146 -1.97467,0.0433 -3.94859,0.10721 -5.92209,0.18829 -1.68281,0.0646 -3.36464,0.15006 -5.04678,0.22981 -1.15966,0.0652 -2.32078,0.12938 -3.476176,0.24957 -0.505156,0.0599 -1.002795,0.16936 -1.510353,0.20831 -0.200972,0.0186 -0.203552,0.0417 -0.240583,-0.19561 -0.154744,-0.89948 -0.249685,-1.80816 -0.365466,-2.7131 -0.238938,-1.93806 -0.481688,-3.87727 -0.841246,-5.79742 -0.421902,-2.15121 -0.845918,-4.30233 -1.321586,-6.44243 -0.469365,-2.11693 -0.909155,-4.24121 -1.438087,-6.34426 -0.487293,-1.77489 -1.003543,-3.55849 -1.839931,-5.20603 -0.613642,-1.12201 -1.303258,-2.21769 -2.438177,-2.87835 -1.295046,-0.60256 -2.714848,-0.78517 -4.134104,-0.83741 -1.934763,-0.0256 -3.889272,0.0539 -5.747981,0.64704 -3.325214,1.13931 -6.326036,2.96457 -9.322302,4.78645 -1.891027,1.22889 -3.663315,2.60903 -4.808868,4.59933 -1.239883,2.14712 -2.272861,4.40094 -3.257701,6.67484 -1.143606,2.64572 -2.282793,5.29863 -3.162633,8.04668 -0.503413,1.63543 -1.006192,3.27254 -1.288095,4.96397 -0.158118,0.60141 -0.344678,1.20139 -0.73193,1.69994 -0.981528,1.1401 -5.091213,3.00871 3.487557,-1.87118 0.02556,-0.0146 -0.04307,0.0401 -0.0646,0.0601 -0.200081,0.14034 -0.456751,0.16665 -0.693071,0.19826 -0.676871,0.0785 -1.355815,0.10459 -2.036797,0.12346 -1.561843,0.0863 -3.116567,0.25696 -4.670314,0.43467 -2.915436,0.30207 -5.84427,0.48535 -8.776544,0.34309 -3.505388,-0.18259 -6.995662,-0.56281 -10.501968,-0.72747 -2.44244,-0.0431 -4.91009,-0.097 -7.331385,0.2756 0,0 -3.41091,2.60163 -3.41091,2.60163 z" />
    <circle
       id="path68"
       style="fill:#000000;stroke:#000000;stroke-width:0.264583"
       cx="345.9321"
       cy="286.65552"
       r="0.070644349" />
    <circle
       id="path84"
       style="fill:#000000;stroke:#000000;stroke-width:0.264583"
       cx="339.50647"
       cy="334.98148"
       r="0.070644349" />
    <path
       style="fill:#000000;fill-opacity:1;fill-rule:nonzero;stroke:none;stroke-width:0.264583"
       id="path86"
       d="m 349.67209,356.17994 c -0.7039,-1.74911 -1.32324,-3.53251 -1.97052,-5.30302 0,0 -6.47633,3.55378 -6.47633,3.55378 v 0 c 0.50048,1.85933 1.00504,3.71723 1.51622,5.5736 0,0 6.93063,-3.82436 6.93063,-3.82436 z" />
    <path
       style="fill:#000000;fill-opacity:1;fill-rule:nonzero;stroke:none;stroke-width:0.264583"
       id="path92"
       d="m 98.253999,131.29723 c 0.202022,2.47685 0.948608,4.86436 1.564621,7.25969 0.82586,3.40827 1.25819,6.90005 1.67479,10.37794 0.41843,3.65119 0.59653,7.32308 0.88289,10.98553 0.13984,2.70733 0.73617,5.31875 1.67355,7.85199 0.95668,2.56434 2.48813,4.42845 4.66029,6.04622 2.6276,1.83131 5.69987,2.20427 8.80728,2.4273 4.15704,0.21105 8.31568,-0.0981 12.44953,-0.51661 4.4388,-0.50742 8.84942,-1.22848 13.25101,-1.98742 2.25889,-0.42304 4.54925,-0.62241 6.73388,-1.3895 1.13293,-0.3978 2.22035,-0.91495 3.33053,-1.37243 0,0 0.12823,-0.0963 0.12823,-0.0963 v 0 c -0.16097,-0.25543 -0.20104,-0.65814 -0.48293,-0.7663 -1.27356,-0.48865 -4.43677,0.63798 -5.80567,0.68465 -4.40449,0.76371 -8.81119,1.52645 -13.2547,2.0321 -4.09646,0.42639 -8.21576,0.72506 -12.33689,0.53943 -2.99816,-0.21043 -5.99379,-0.54047 -8.5614,-2.25233 -2.10143,-1.54611 -3.57795,-3.32776 -4.50283,-5.79796 -0.90101,-2.48727 -1.47689,-5.04959 -1.69357,-7.69208 -0.36257,-3.65118 -0.5445,-7.31741 -0.95752,-10.96384 -0.42073,-3.48801 -0.86818,-6.98529 -1.80445,-10.38037 -0.60532,-2.37723 -1.3264,-4.7791 -1.32794,-7.25269 0,0 -4.428701,2.26297 -4.428701,2.26297 z" />
    <circle
       id="path94"
       style="fill:#000000;stroke:#000000;stroke-width:0.264583"
       cx="158.80368"
       cy="170.07292"
       r="0.070644349" />
    <circle
       id="path96"
       style="fill:#000000;stroke:#000000;stroke-width:0.264583"
       cx="158.80368"
       cy="170.07292"
       r="0.070644349" />
    <path
       style="fill:#000000;fill-opacity:1;fill-rule:nonzero;stroke:none;stroke-width:0.264583"
       id="path98"
       d="m 152.9349,117.83427 c 2.86497,1.92212 5.67437,3.98833 8.12493,6.42944 0.75277,0.74987 1.44711,1.55619 2.17067,2.33428 4.5016,5.10896 7.57889,10.94135 10.04445,17.23818 0.64593,3.03448 1.69513,3.62267 3.77562,5.59228 0,0 0.14092,-0.0765 0.14092,-0.0765 v 0 c 0.211,-1.16975 0.76797,-3.82939 0.61849,-4.95507 -0.12025,-0.9055 -0.61024,-1.72197 -0.91536,-2.58295 -2.5729,-6.22686 -5.77401,-12.2051 -10.2572,-17.28794 -0.73555,-0.78256 -1.44496,-1.59054 -2.20666,-2.34767 -2.44087,-2.4262 -5.16772,-4.55592 -7.8713,-6.67559 0,0 -3.62456,2.33158 -3.62456,2.33158 z" />
    <path
       style="fill:#000000;fill-opacity:1;fill-rule:nonzero;stroke:none;stroke-width:0.264583"
       id="path100"
       d="m 163.93429,111.38795 c 3.55691,4.36412 7.10387,8.72006 10.43093,13.26456 3.23723,4.56377 6.2025,9.32927 8.65885,14.36149 0.85852,1.75881 2.08259,4.60977 2.88226,6.44119 2.20005,2.79146 1.132,1.49456 3.18686,3.90488 0,0 0.14058,-0.0772 0.14058,-0.0772 v 0 c 0.137,-3.58799 0.14004,-1.70234 -0.0579,-5.65668 -0.40024,-1.04954 -0.75232,-2.11874 -1.20073,-3.14863 -2.73896,-6.29074 -6.57489,-12.05733 -10.38156,-17.7325 -3.24375,-4.5805 -6.72422,-8.97794 -9.99766,-13.5359 0,0 -3.66166,2.17875 -3.66166,2.17875 z" />
    <path
       style="fill:#000000;fill-opacity:1;fill-rule:nonzero;stroke:none;stroke-width:0.264583"
       id="path102"
       d="m 178.32102,105.01135 c 3.39848,3.21802 6.6065,6.6691 9.31799,10.49496 0.92752,1.30871 1.75835,2.68333 2.63752,4.02499 2.82194,4.73552 4.88132,9.84285 6.67429,15.03845 0.58011,1.68103 1.02196,3.4096 1.64893,5.07373 3.36872,8.94147 0.76692,0.0292 3.10571,8.83477 0,0 0.14179,-0.0749 0.14179,-0.0749 v 0 c -0.0743,-1.62402 -0.15079,-3.24794 -0.22275,-4.87206 -0.0799,-1.80389 0.036,-3.62644 -0.2329,-5.41196 -0.26947,-1.78915 -0.82792,-3.5262 -1.37317,-5.25141 -1.66292,-5.26169 -4.06594,-10.28263 -6.64226,-15.14576 -0.85842,-1.36433 -1.67134,-2.75837 -2.57526,-4.09299 -1.33698,-1.97403 -3.30243,-4.48681 -4.86918,-6.33645 -0.97216,-1.14769 -2.21604,-2.53365 -3.37528,-3.55882 -0.31744,-0.28073 -0.6742,-0.51358 -1.01131,-0.77037 0,0 -3.22412,2.04783 -3.22412,2.04783 z" />
    <path
       style="fill:#000000;fill-opacity:1;fill-rule:nonzero;stroke:none;stroke-width:0.264583"
       id="path116"
       d="m 66.539884,201.90873 c -3.718898,0.5838 -7.319496,2.88914 -9.372052,6.05696 -0.355256,0.54829 -0.641667,1.13823 -0.962501,1.70735 -1.892763,4.14648 -2.370886,8.65474 -2.374477,13.15835 0.191037,3.55638 1.199428,6.98389 4.044969,9.33037 0.56361,0.46476 1.213551,0.81359 1.820325,1.22039 3.946025,1.93678 8.320394,2.40094 12.641027,1.72132 0.936911,-0.14738 1.855444,-0.39422 2.783165,-0.59132 0.860042,-0.29336 1.747901,-0.51518 2.580119,-0.88006 2.386301,-1.04627 8.626893,-5.3273 9.140492,-5.7105 2.005441,-1.49627 3.947038,-4.85352 5.204163,-6.98421 2.446936,-4.81847 3.275253,-10.18395 3.453739,-15.5283 -0.103746,-2.75664 -0.363355,-5.84166 -2.361219,-7.97084 -1.281276,-1.36549 -2.078757,-1.53106 -3.751058,-2.30193 -0.774349,-0.1731 -1.53333,-0.4423 -2.323045,-0.51931 -5.729766,-0.55873 -11.300348,3.34294 -15.521376,6.53884 -0.89272,0.67591 -1.455161,1.70227 -2.182741,2.55341 -0.580308,1.05859 -1.314521,2.04638 -1.740919,3.17578 -0.396488,1.05019 -1.120454,5.82859 -1.2876,6.84923 0,0 0.145241,-0.068 0.145241,-0.068 v 0 c 0.708964,-1.41315 1.320532,-2.87953 2.12689,-4.23947 1.411454,-2.38045 3.819326,-5.45817 5.51884,-7.70955 0.8899,-0.88219 2.388426,-1.42549 2.669702,-2.64659 0.181792,-0.7892 -2.854346,1.43686 -2.263466,0.88302 0.698701,-0.65491 1.705391,-0.88486 2.607702,-1.20567 2.40166,-0.85389 4.84764,-1.00798 7.302164,-0.32467 1.573453,0.67888 2.326351,0.81413 3.541548,2.05558 1.939356,1.98125 2.226966,4.92533 2.367301,7.53629 -0.131093,5.23906 -0.968507,10.46699 -3.385272,15.18001 -1.179666,2.00324 -1.611109,2.93387 -3.129309,4.71607 -0.603792,0.70879 -2.28441,1.12968 -1.951001,1.99904 0.30288,0.78975 2.438559,-1.76992 2.361928,-0.92756 -0.06424,0.7061 -4.685805,2.28162 -5.024882,2.40974 -0.935815,0.22657 -1.860375,0.50611 -2.807451,0.67971 -4.219152,0.77333 -8.538848,0.38703 -12.442283,-1.42971 -0.587883,-0.37808 -1.215771,-0.70022 -1.763646,-1.13426 -2.787301,-2.20815 -3.790363,-5.49688 -3.959696,-8.9261 -0.0037,-4.4215 0.482573,-8.85855 2.420937,-12.89615 0.801257,-1.36554 0.982965,-1.85732 2.058882,-3.00158 0.35361,-0.37607 1.646507,-1.19072 1.155687,-1.03083 -1.055016,0.34368 -1.974467,1.01824 -2.916553,1.60446 -0.330842,0.20586 0.70751,-0.3298 1.075235,-0.4587 0.27568,-0.0966 0.56624,-0.14395 0.84936,-0.21593 0,0 3.651131,-2.6747 3.651131,-2.6747 z" />
    <path
       style="fill:#000000;fill-opacity:1;fill-rule:nonzero;stroke:none;stroke-width:0.264583"
       id="path118"
       d="m 137.31723,199.29152 c -2.53669,1.63511 -4.6784,3.69845 -6.6493,5.96556 -2.7097,3.5175 -4.79873,7.51495 -5.8671,11.84101 -0.20678,0.83729 -0.32775,1.69347 -0.49162,2.54021 -0.32717,3.89052 -0.0339,8.06205 2.14964,11.43247 0.4107,0.63394 0.92952,1.19089 1.39428,1.78634 0.54511,0.50982 1.04331,1.07494 1.63533,1.52945 2.56215,1.96704 5.96385,3.02244 9.1804,3.01566 0.88157,-0.002 1.75656,-0.15216 2.63483,-0.22825 0.90838,-0.23033 1.83933,-0.38514 2.72513,-0.691 0.94835,-0.32746 1.87987,-0.7195 2.75916,-1.20266 3.14502,-1.7282 6.92452,-3.62105 9.5875,-6.30079 1.85263,-1.86429 2.22232,-2.77236 3.56143,-4.9891 2.04282,-4.48258 3.1738,-9.44996 2.64257,-14.39457 -0.0918,-0.85494 -0.30406,-1.69262 -0.45609,-2.53894 -1.02513,-2.92361 -2.59069,-5.91454 -5.223,-7.72506 -1.59873,-1.09962 -2.46472,-1.19895 -4.29204,-1.74017 -3.23818,-0.16668 -6.4654,0.52921 -9.33594,2.07973 -2.66683,1.44049 -8.04631,3.62446 -9.881,7.13196 -0.42331,0.80928 -0.45961,1.76785 -0.68941,2.65177 0,0 0.14702,-0.0641 0.14702,-0.0641 v 0 c 1.28917,-1.31893 2.51123,-2.70697 3.86753,-3.95678 1.15952,-1.0685 2.59816,-1.82862 3.66786,-2.98703 0.41611,-0.45063 -2.23028,1.01644 -1.65407,0.80621 1.08682,-0.39651 2.09419,-0.99653 3.19027,-1.36668 2.63399,-0.8895 3.02988,-0.73257 5.63951,-0.83379 1.75382,0.46107 2.56931,0.51957 4.10553,1.53462 2.55755,1.68988 4.10047,4.5277 5.07766,7.33565 0.15484,0.81327 0.36868,1.61749 0.46452,2.4398 0.56167,4.81918 -0.55251,9.6657 -2.63361,13.99724 -1.35664,2.16764 -1.66574,2.9317 -3.48552,4.75944 -0.67788,0.68084 -1.99239,0.93304 -2.19067,1.87312 -0.15317,0.72625 2.68425,-1.26686 2.00143,-0.9759 -4.6866,1.99705 -0.71919,0.71612 -5.39731,2.04058 -0.86408,0.1026 -1.72262,0.27749 -2.59224,0.3078 -3.14714,0.10971 -6.46411,-0.82556 -9.00537,-2.71067 -0.57931,-0.42973 -1.07093,-0.96651 -1.6064,-1.44976 -0.45161,-0.56781 -0.95543,-1.09776 -1.35484,-1.70343 -2.14237,-3.24876 -2.47316,-7.27409 -2.14437,-11.04559 0.15358,-0.82303 0.26305,-1.65553 0.46073,-2.46909 1.03218,-4.24803 3.15146,-8.13389 5.79892,-11.58287 1.84658,-2.09834 3.85682,-3.98799 6.11121,-5.64661 0,0 -3.85256,1.53417 -3.85256,1.53417 z" />
  </g>
</svg>
